<?xml version="1.0" encoding="utf-8"?>
<!-- Generator: Adobe Illustrator 20.1.0, SVG Export Plug-In . SVG Version: 6.00 Build 0)  -->
<!DOCTYPE svg PUBLIC "-//W3C//DTD SVG 1.1//EN" "http://www.w3.org/Graphics/SVG/1.1/DTD/svg11.dtd">
<svg version="1.1" id="Layer_1" xmlns="http://www.w3.org/2000/svg" xmlns:xlink="http://www.w3.org/1999/xlink" x="0px" y="0px"
	 viewBox="0 0 60 60" style="enable-background:new 0 0 60 60;" xml:space="preserve">
<style type="text/css">
	.st0{fill:none;}
	.st1{fill:#FFFFFF;}
</style>
<title>Asset 2</title>
<g id="Layer_2">
	<g id="Layer_1-2">
		<rect x="0" y="0" class="st0" width="60" height="60"/>
		<path class="st1" d="M9.3,10.1c-10.1,10.6-10.9,27.1-1,38.2C25.1,67,58.7,56.6,58.8,30.4C58.9,4.9,27.1-6.8,9.3,10.1
			c-0.7,0.7,2,1.8,2.7,1.1C23.3,0.5,41.3,0.9,50.8,13.9c7.6,10.8,6.5,25.5-2.8,34.9c-11,11-29.6,10-38.8-2.8
			C1.4,35.2,3,20.7,12,11.2C12.7,10.5,10,9.4,9.3,10.1z"/>
	</g>
</g>
<g id="Layer_2_1_">
	<g id="Layer_1-2_1_">
		<rect x="0" y="0" class="st0" width="60" height="60"/>
		<path class="st1" d="M37.5,15.9c1-1.2-0.7-3-1.7-1.7c-4.3,5-8.7,9.8-13.2,14.6c-0.4,0.4-0.5,1-0.2,1.5c3.2,5.6,6.9,10.8,11.1,15.7
			c1.1,1.2,2.8-0.6,1.8-1.8c-2.3-2.7-4.5-5.6-6.5-8.5c-1.2-1.7-3.8-4.3-3.2-6.5c0.5-1.9,4.7-5.1,6-6.6
			C33.6,20.4,35.5,18.2,37.5,15.9L37.5,15.9z"/>
	</g>
</g>
</svg>
