<?xml version="1.0" encoding="utf-8"?>
<!-- Generator: Adobe Illustrator 20.1.0, SVG Export Plug-In . SVG Version: 6.00 Build 0)  -->
<!DOCTYPE svg PUBLIC "-//W3C//DTD SVG 1.1//EN" "http://www.w3.org/Graphics/SVG/1.1/DTD/svg11.dtd">
<svg version="1.1" id="Layer_1" xmlns="http://www.w3.org/2000/svg" xmlns:xlink="http://www.w3.org/1999/xlink" x="0px" y="0px"
	 viewBox="0 0 60 60" style="enable-background:new 0 0 60 60;" xml:space="preserve">
<style type="text/css">
	.st0{fill:none;}
	.st1{fill:#FFFFFF;}
</style>
<title>Asset 2</title>
<g id="Layer_2">
	<g id="Layer_1-2">
		<rect class="st0" width="60" height="60"/>
		<path class="st1" d="M48,11.2c9,9.5,10.6,24,2.8,34.8C41.6,58.8,23,59.8,12,48.8C2.7,39.4,1.6,24.7,9.2,13.9
			C18.7,0.9,36.7,0.5,48,11.2c0.7,0.7,3.4-0.4,2.7-1.1C32.9-6.8,1.1,4.9,1.2,30.4C1.3,56.6,34.9,67,51.7,48.3
			c9.9-11.1,9.1-27.6-1-38.2C50,9.4,47.3,10.5,48,11.2z"/>
	</g>
</g>
<g id="Layer_2_1_">
	<g id="Layer_1-2_1_">
		<rect class="st0" width="60" height="60"/>
		<path class="st1" d="M22.5,15.9c2,2.3,3.9,4.5,5.9,6.7c1.3,1.5,5.5,4.7,6,6.6c0.6,2.2-2,4.8-3.2,6.5c-2,2.9-4.2,5.8-6.5,8.5
			c-1,1.2,0.7,3,1.8,1.8c4.2-4.9,7.9-10.1,11.1-15.7c0.3-0.5,0.2-1.1-0.2-1.5c-4.5-4.8-8.9-9.6-13.2-14.6
			C23.2,12.9,21.5,14.7,22.5,15.9L22.5,15.9z"/>
	</g>
</g>
</svg>
