<svg xmlns="http://www.w3.org/2000/svg" viewBox="0 0 60 60"><defs><style>.cls-1{fill:none;}.cls-2{fill:#fff;}</style></defs><title>Asset 2</title><g id="Layer_2" data-name="Layer 2"><g id="Layer_1-2" data-name="Layer 1"><rect class="cls-1" width="60" height="60"/><path class="cls-2" d="M24.75,16.29q3.46,3.65,7,7.25,1.6,1.63,3.21,3.25c.57.57,3.73,3.1,3.89,3.86.44,2-3.45,4.54-4.86,5.77a104,104,0,0,1-9.18,7.14l1.5.86.15-28.83a1,1,0,0,0-2,0l-.15,28.83a1,1,0,0,0,1.5.86A108.82,108.82,0,0,0,41.56,31.91a1,1,0,0,0,0-1.41q-7.85-7.66-15.39-15.62C25.28,13.94,23.87,15.36,24.75,16.29Z"/><path class="cls-2" d="M48,11.21c9,9.5,10.62,24,2.81,34.85C41.57,58.82,23,59.83,12,48.79A27.21,27.21,0,0,1,9.2,13.94C18.67.91,36.71.5,48,11.21c.7.67,3.43-.42,2.7-1.11C32.93-6.76,1.14,4.92,1.2,30.39,1.27,56.63,34.94,67,51.69,48.3c9.89-11.06,9.06-27.61-1-38.2C50,9.41,47.28,10.46,48,11.21Z"/></g></g></svg>